<?xml version="1.0" standalone="no"?>
<!DOCTYPE svg PUBLIC "-//W3C//DTD SVG 20010904//EN"
 "http://www.w3.org/TR/2001/REC-SVG-20010904/DTD/svg10.dtd">
<svg version="1.0" xmlns="http://www.w3.org/2000/svg"
 width="300.000000pt" height="201.000000pt" viewBox="0 0 300.000000 201.000000"
 preserveAspectRatio="xMidYMid meet">
<metadata>
Created by potrace 1.15, written by Peter Selinger 2001-2017
</metadata>
<g transform="translate(0.000000,201.000000) scale(0.100000,-0.100000)"
fill="#000000" stroke="none">
<path d="M1210 1896 c-387 -56 -696 -199 -908 -420 -148 -155 -212 -304 -212
-496 0 -324 234 -607 652 -786 104 -44 307 -99 443 -120 146 -22 442 -22 585
0 495 76 883 314 1030 631 60 129 79 244 61 362 -62 403 -476 720 -1071 823
-103 18 -469 22 -580 6z m605 -55 c145 -26 231 -50 349 -96 510 -201 760 -590
622 -972 -37 -101 -85 -172 -181 -269 -259 -263 -654 -404 -1127 -404 -409 1
-755 103 -1018 301 -151 114 -245 237 -297 389 -55 159 -44 310 32 467 149
305 532 528 1025 597 149 21 437 15 595 -13z"/>
<path d="M2010 1570 c0 -41 -14 -52 -38 -28 -9 9 -15 9 -24 0 -7 -7 -41 -12
-84 -12 -63 0 -72 2 -77 20 -3 11 -10 20 -15 20 -16 0 -43 -31 -39 -44 5 -14
170 -22 375 -18 l152 3 0 29 c0 24 -3 28 -17 23 -10 -4 -22 -12 -26 -20 -9
-15 -47 -18 -47 -3 0 6 -8 5 -21 -2 -17 -11 -22 -10 -33 5 -9 11 -29 19 -52
20 -34 2 -39 5 -36 25 2 12 -2 22 -7 22 -6 0 -11 -18 -11 -40z"/>
<path d="M1240 1263 c-47 -24 -67 -66 -51 -107 26 -63 28 -61 -53 -80 -97 -23
-134 -48 -171 -119 -16 -32 -54 -82 -82 -112 -56 -57 -61 -75 -41 -132 9 -26
18 -33 38 -33 14 0 31 -5 38 -12 8 -8 15 -8 24 0 21 17 40 -1 32 -31 -5 -23
-3 -27 15 -27 16 0 21 6 21 24 0 14 5 28 11 32 7 4 1 17 -17 35 -22 23 -32 27
-57 22 -28 -6 -29 -4 -24 18 21 82 35 119 59 147 15 18 35 47 45 64 13 22 39
41 92 65 41 19 85 43 99 53 32 26 56 10 48 -32 -4 -21 -2 -28 9 -28 8 0 24 -9
36 -21 l20 -20 60 20 c72 25 86 26 135 4 l39 -17 -39 -6 c-53 -10 -69 -33 -61
-89 l7 -44 -32 23 c-29 21 -32 21 -50 5 -16 -14 -24 -15 -54 -5 -30 9 -40 8
-75 -9 -43 -22 -94 -31 -58 -10 26 15 24 112 -3 139 -41 41 -102 21 -131 -43
-23 -51 -24 -86 -4 -93 24 -10 17 -24 -11 -24 -23 0 -63 -32 -64 -52 0 -3 16
-12 36 -18 30 -10 38 -9 53 4 23 21 34 20 56 -4 17 -19 18 -19 58 2 62 31 107
29 159 -9 l44 -32 28 35 c19 25 35 34 56 34 36 0 43 -11 29 -44 -10 -20 -8
-30 10 -60 24 -38 164 -156 185 -156 28 0 44 34 43 91 -1 53 13 89 34 89 4 0
27 -20 50 -45 31 -33 50 -45 71 -45 38 0 33 -20 -10 -39 -18 -8 -32 -18 -32
-22 0 -4 10 -25 23 -48 l23 -40 58 58 c57 58 58 59 51 103 l-7 45 -44 -5 c-25
-2 -58 1 -76 8 -58 23 -148 92 -154 117 l-6 24 -23 -21 c-15 -14 -25 -18 -30
-11 -3 6 -19 11 -35 11 -37 0 -45 14 -26 42 9 12 16 40 16 60 0 32 -5 41 -30
57 -34 20 -31 25 29 56 60 30 161 3 174 -47 5 -17 11 -19 40 -14 60 11 113
-54 75 -93 -11 -10 -8 -16 12 -32 56 -43 56 -43 41 -68 -6 -9 -18 -11 -34 -7
-24 6 -43 29 -112 142 -29 48 -30 48 -33 21 -2 -16 2 -35 9 -43 38 -46 -48 20
-133 102 -22 20 -28 23 -28 10 0 -9 -7 -16 -16 -16 -12 0 -10 -7 10 -31 14
-17 26 -37 26 -44 0 -7 16 -23 35 -35 19 -12 40 -30 45 -41 7 -12 21 -19 40
-19 22 0 38 -10 66 -44 27 -33 48 -47 80 -55 24 -6 45 -11 47 -11 3 0 19 21
35 48 17 26 49 65 71 87 23 21 41 47 41 56 0 22 -78 60 -106 53 -16 -4 -32 5
-61 34 -21 22 -49 42 -61 46 -12 4 -34 27 -48 52 -23 40 -30 44 -63 44 -28 0
-47 -9 -79 -36 -23 -19 -46 -33 -52 -29 -13 8 -13 45 0 45 5 0 17 11 25 24 20
30 7 67 -38 114 -40 41 -91 44 -131 7 -52 -48 -63 -124 -20 -144 31 -14 29
-45 -4 -49 -13 -2 -34 4 -47 12 -13 9 -40 16 -59 16 -46 0 -52 13 -25 56 61
99 -13 196 -111 147z"/>
</g>
</svg>
